<svg xmlns="http://www.w3.org/2000/svg" width="53.831" height="55.4"><path d="M39.333 37.518c-6.401-.564-11.062-3.907-11.298-9.979h8.567c.188 1.93 1.13 3.106 2.73 3.625v-7.438c-5.037-1.318-11.345-2.73-11.345-10.121 0-5.884 4.943-9.368 11.345-9.792V0h3.013v3.813c6.449.518 10.592 3.813 11.015 9.792h-8.614c-.188-1.742-1.082-2.825-2.4-3.295v7.296c5.037 1.412 11.485 2.777 11.485 10.074 0 5.083-4.048 9.556-11.485 9.885v3.813h-3.013v-3.86zm0-20.901v-6.543c-1.741.283-2.825 1.318-2.825 3.154 0 1.647 1.131 2.636 2.825 3.389zm3.013 8.003v6.684c1.883-.329 3.06-1.6 3.06-3.342-.001-1.695-1.224-2.636-3.06-3.342z"/><path fill-rule="evenodd" clip-rule="evenodd" d="M0 47.288h53.831V55.4H0z"/><path d="M18.217 30.263c0-1.152-.743-1.849-1.896-1.849-1.177 0-1.896.696-1.896 1.849v7.176H9.121v-7.176c0-1.152-.744-1.849-1.896-1.849-1.176 0-1.896.696-1.896 1.849v7.176H0V23.902h5.328v1.824c.72-1.056 2.017-1.92 3.913-1.92 1.968 0 3.504.888 4.393 2.424.911-1.296 2.448-2.424 4.44-2.424 3.504 0 5.447 2.28 5.447 5.785v7.848h-5.304v-7.176z"/></svg>