<svg viewBox="0 0 640 640" fill="none" xmlns="http://www.w3.org/2000/svg"><path d="M155.1 601.7c78.027 0 140.8-62.773 140.8-140.8 0-78.027-62.773-140.8-140.8-140.8-78.027 0-140.8 62.773-140.8 140.8 0 78.027 62.773 140.8 140.8 140.8z" fill="#2775CA"/><path d="M193.82 483.193c0-20.533-12.32-27.573-36.96-30.506-17.6-2.347-21.12-7.04-21.12-15.254 0-8.214 5.867-13.493 17.6-13.493 10.56 0 16.427 3.52 19.36 12.32.587 1.76 2.347 2.933 4.107 2.933h9.386c2.347 0 4.107-1.76 4.107-4.106v-.587c-2.347-12.907-12.907-22.88-26.4-24.053v-14.08c0-2.347-1.76-4.107-4.693-4.694h-8.8c-2.347 0-4.107 1.76-4.694 4.694v13.493c-17.6 2.347-28.746 14.08-28.746 28.747 0 19.36 11.733 26.986 36.373 29.92 16.427 2.933 21.707 6.453 21.707 15.84 0 9.388-8.214 15.84-19.36 15.84-15.254 0-20.534-6.454-22.294-15.254-.586-2.346-2.346-3.52-4.106-3.52h-9.974c-2.346 0-4.106 1.76-4.106 4.107v.587c2.346 14.666 11.733 25.226 31.093 28.16v14.08c0 2.346 1.76 4.106 4.693 4.693h8.8c2.347 0 4.107-1.76 4.694-4.693v-14.08c17.6-2.934 29.333-15.254 29.333-31.094z" fill="#fff"/><path d="M125.18 544.793c-45.76-16.426-69.227-67.466-52.213-112.64 8.8-24.64 28.16-43.413 52.213-52.213 2.347-1.173 3.52-2.933 3.52-5.867v-8.213c0-2.347-1.173-4.107-3.52-4.693-.587 0-1.76 0-2.347.586-55.733 17.6-86.24 76.854-68.64 132.587 10.56 32.853 35.787 58.08 68.64 68.64 2.347 1.173 4.694 0 5.28-2.347.587-.586.587-1.173.587-2.346v-8.214c0-1.76-1.76-4.106-3.52-5.28zm62.187-183.04c-2.347-1.173-4.694 0-5.28 2.347-.587.587-.587 1.173-.587 2.347v8.213c0 2.347 1.76 4.693 3.52 5.867 45.76 16.426 69.227 67.466 52.213 112.64-8.8 24.64-28.16 43.413-52.213 52.213-2.347 1.173-3.52 2.933-3.52 5.867v8.213c0 2.347 1.173 4.107 3.52 4.693.587 0 1.76 0 2.347-.586 55.733-17.6 86.24-76.854 68.64-132.587-10.56-33.44-36.374-58.667-68.64-69.227z" fill="#fff"/><path d="M486.2 601.7c77.761 0 140.8-63.039 140.8-140.8 0-77.761-63.039-140.8-140.8-140.8-77.761 0-140.8 63.039-140.8 140.8 0 77.761 63.039 140.8 140.8 140.8z" fill="#FDC134"/><path fill-rule="evenodd" clip-rule="evenodd" d="M432.8 394.593h53.635c32.625 0 57.354 17.536 66.555 43.052h16.709v15.423h-13.19c.258 2.438.39 4.92.39 7.443v.378c0 2.84-.167 5.632-.493 8.367H569.7v15.423h-17.027c-9.443 25.161-33.98 42.529-66.237 42.529H432.8v-42.53h-18.639v-15.422h18.638v-16.188h-18.638v-15.423h18.638v-43.052h.001zm14.996 90.086v28.694h38.64c23.845 0 41.56-11.493 49.807-28.694h-88.447zm93.041-15.423h-93.041v-16.188h93.065a58.36 58.36 0 01.522 7.821v.378c0 2.724-.185 5.393-.546 7.988zm-54.402-60.85c23.955 0 41.724 11.796 49.922 29.239h-88.561v-29.24h38.64z" fill="#fff"/><path d="M321.2 37.4c77.752 0 140.8 63.048 140.8 140.8 0 77.752-63.048 140.8-140.8 140.8-77.752 0-140.8-63.008-140.8-140.8S243.448 37.4 321.2 37.4z" fill="#26A17B"/><path d="M341.025 162.5v-20.962h47.912v-31.915H258.5v31.915h47.91v20.963c-38.914 1.8-68.208 9.504-68.208 18.734 0 9.231 29.294 16.936 68.209 18.735v67.075h34.653V199.97c38.876-1.8 68.092-9.504 68.092-18.735-.04-9.23-29.255-16.935-68.132-18.734zm.04 31.799c-.978.04-5.984.352-17.17.352-8.956 0-15.214-.235-17.444-.352v.04c-34.378-1.527-60.074-7.51-60.074-14.668 0-7.157 25.656-13.14 60.074-14.667v23.31c2.268.157 8.683.548 17.6.548 10.678 0 16.036-.43 17.052-.547v-23.389c34.34 1.525 59.958 7.509 59.958 14.667-.078 7.157-25.696 13.141-59.996 14.706" fill="#fff"/></svg>