<svg viewBox="0 0 640 640" fill="none" xmlns="http://www.w3.org/2000/svg">
<g transform="scale(1.1), translate(-28, -30)">
<path d="M169 577C239.934 577 297 519.934 297 449C297 378.066 239.934 321 169 321C98.0663 321 41 378.066 41 449C41 519.934 98.0663 577 169 577Z" fill="#2775CA"/>
<path d="M204.2 469.266C204.2 450.6 193 444.2 170.6 441.534C154.6 439.4 151.4 435.134 151.4 427.666C151.4 420.199 156.734 415.4 167.4 415.4C177 415.4 182.334 418.6 185 426.6C185.534 428.2 187.134 429.266 188.734 429.266H197.266C199.4 429.266 201 427.666 201 425.534V425C198.866 413.266 189.266 404.2 177 403.134V390.334C177 388.2 175.4 386.6 172.734 386.066H164.734C162.6 386.066 161 387.666 160.466 390.334V402.6C144.466 404.734 134.334 415.4 134.334 428.734C134.334 446.334 145 453.266 167.4 455.934C182.334 458.6 187.134 461.8 187.134 470.334C187.134 478.868 179.666 484.734 169.534 484.734C155.666 484.734 150.866 478.866 149.266 470.866C148.734 468.734 147.134 467.666 145.534 467.666H136.466C134.334 467.666 132.734 469.266 132.734 471.4V471.934C134.866 485.266 143.4 494.866 161 497.534V510.334C161 512.466 162.6 514.066 165.266 514.6H173.266C175.4 514.6 177 513 177.534 510.334V497.534C193.534 494.866 204.2 483.666 204.2 469.266V469.266Z" fill="white"/>
<path d="M141.8 525.266C100.2 510.334 78.8661 463.934 94.3337 422.866C102.334 400.466 119.934 383.4 141.8 375.4C143.934 374.334 145 372.734 145 370.066V362.6C145 360.466 143.934 358.866 141.8 358.334C141.266 358.334 140.2 358.334 139.666 358.866C88.9999 374.866 61.2661 428.734 77.2661 479.4C86.8661 509.266 109.8 532.2 139.666 541.8C141.8 542.866 143.934 541.8 144.466 539.666C145 539.134 145 538.6 145 537.534V530.066C145 528.466 143.4 526.334 141.8 525.266ZM198.334 358.866C196.2 357.8 194.066 358.866 193.534 361C193 361.534 193 362.066 193 363.134V370.6C193 372.734 194.6 374.866 196.2 375.934C237.8 390.866 259.134 437.266 243.666 478.334C235.666 500.734 218.066 517.8 196.2 525.8C194.066 526.866 193 528.466 193 531.134V538.6C193 540.734 194.066 542.334 196.2 542.866C196.734 542.866 197.8 542.866 198.334 542.334C249 526.334 276.734 472.466 260.734 421.8C251.134 391.4 227.666 368.466 198.334 358.866V358.866Z" fill="white"/>
<path d="M470 577C540.692 577 598 519.692 598 449C598 378.308 540.692 321 470 321C399.308 321 342 378.308 342 449C342 519.692 399.308 577 470 577Z" fill="#FDC134"/>
<path fill-rule="evenodd" clip-rule="evenodd" d="M421.455 388.721H470.214C499.873 388.721 522.354 404.663 530.718 427.859H545.908V441.88H533.918C534.152 444.096 534.272 446.352 534.272 448.646V448.99C534.272 451.572 534.12 454.11 533.824 456.596H545.908V470.617H530.429C521.845 493.491 499.538 509.28 470.214 509.28H421.455V470.617H404.51V456.596H421.454V441.88H404.51V427.859H421.454V388.721H421.455ZM435.087 470.617V496.703H470.214C491.892 496.703 507.997 486.255 515.494 470.617H435.087ZM519.67 456.596H435.087V441.88H519.692C520.005 444.195 520.166 446.569 520.166 448.99V449.334C520.166 451.81 519.998 454.236 519.67 456.595V456.596ZM470.214 401.278C491.991 401.278 508.145 412.002 515.597 427.859H435.087V401.278H470.214Z" fill="white"/>
<path d="M320 64C390.684 64 448 121.316 448 192C448 262.684 390.684 320 320 320C249.316 320 192 262.72 192 192C192 121.28 249.316 64 320 64Z" fill="#26A17B"/>
<path d="M338.023 177.728V158.671H381.579V129.657H263.001V158.671H306.556V177.728C271.179 179.364 244.548 186.368 244.548 194.759C244.548 203.151 271.179 210.155 306.556 211.791V272.768H338.059V211.791C373.401 210.155 399.961 203.151 399.961 194.759C399.925 186.368 373.365 179.364 338.023 177.728V177.728ZM338.059 206.635C337.17 206.671 332.619 206.955 322.45 206.955C314.308 206.955 308.619 206.742 306.592 206.635V206.671C275.339 205.284 251.979 199.844 251.979 193.337C251.979 186.831 275.303 181.391 306.592 180.004V201.195C308.654 201.337 314.485 201.693 322.592 201.693C332.299 201.693 337.17 201.302 338.094 201.195V179.933C369.312 181.319 392.601 186.759 392.601 193.266C392.53 199.773 369.241 205.213 338.059 206.635" fill="white"/>
</g>
</svg>
