<svg width="46" height="46" viewBox="0 0 46 46" fill="none" xmlns="http://www.w3.org/2000/svg">
<circle cx="23" cy="23" r="23" fill="#252736"/>
<path d="M22 3.5H24L40 16.5V29.5L24 42.5H22L13 35.5L6 29.5V16.5L22 3.5Z" fill="#F5C09A"/>
<path d="M22 40.5H24V46H22L22 40.5Z" fill="#F5C09A"/>
<path d="M22 0H24V5.5H22V0Z" fill="#F5C09A"/>
<path d="M22.1765 7H23.8235L36 17.6667V28.3333L23.8235 39H22.1765L14.7647 33.2564L10 28.3333V17.6667L22.1765 7Z" fill="#252736"/>
<circle cx="23" cy="23" r="14" fill="#242636"/>
<path d="M15.3633 25.4102L18.7383 25.082C18.9414 26.2148 19.3516 27.0469 19.9688 27.5781C20.5938 28.1094 21.4336 28.375 22.4883 28.375C23.6055 28.375 24.4453 28.1406 25.0078 27.6719C25.5781 27.1953 25.8633 26.6406 25.8633 26.0078C25.8633 25.6016 25.7422 25.2578 25.5 24.9766C25.2656 24.6875 24.8516 24.4375 24.2578 24.2266C23.8516 24.0859 22.9258 23.8359 21.4805 23.4766C19.6211 23.0156 18.3164 22.4492 17.5664 21.7773C16.5117 20.832 15.9844 19.6797 15.9844 18.3203C15.9844 17.4453 16.2305 16.6289 16.7227 15.8711C17.2227 15.1055 17.9375 14.5234 18.8672 14.125C19.8047 13.7266 20.9336 13.5273 22.2539 13.5273C24.4102 13.5273 26.0312 14 27.1172 14.9453C28.2109 15.8906 28.7852 17.1523 28.8398 18.7305L25.3711 18.8828C25.2227 18 24.9023 17.3672 24.4102 16.9844C23.9258 16.5938 23.1953 16.3984 22.2188 16.3984C21.2109 16.3984 20.4219 16.6055 19.8516 17.0195C19.4844 17.2852 19.3008 17.6406 19.3008 18.0859C19.3008 18.4922 19.4727 18.8398 19.8164 19.1289C20.2539 19.4961 21.3164 19.8789 23.0039 20.2773C24.6914 20.6758 25.9375 21.0898 26.7422 21.5195C27.5547 21.9414 28.1875 22.5234 28.6406 23.2656C29.1016 24 29.332 24.9102 29.332 25.9961C29.332 26.9805 29.0586 27.9023 28.5117 28.7617C27.9648 29.6211 27.1914 30.2617 26.1914 30.6836C25.1914 31.0977 23.9453 31.3047 22.4531 31.3047C20.2812 31.3047 18.6133 30.8047 17.4492 29.8047C16.2852 28.7969 15.5898 27.332 15.3633 25.4102Z" fill="#F5C09A"/>
<path d="M22 30.5C22 29.9477 22.4477 29.5 23 29.5V29.5C23.5523 29.5 24 29.9477 24 30.5V33C24 33.5523 23.5523 34 23 34V34C22.4477 34 22 33.5523 22 33V30.5Z" fill="#F5C09A"/>
<path d="M22 12C22 11.4477 22.4477 11 23 11V11C23.5523 11 24 11.4477 24 12V14.5C24 15.0523 23.5523 15.5 23 15.5V15.5C22.4477 15.5 22 15.0523 22 14.5V12Z" fill="#F5C09A"/>
</svg>
