<svg viewBox="0 0 258 258" xmlns="http://www.w3.org/2000/svg">
    <path d="M173.879 148.976C212.826 154.736 240 167.762 240 182.91c0 20.484-49.696 37.09-111 37.09S18 203.394 18 182.91c0-15.148 27.174-28.174 66.121-33.934 13.378 2.72 28.656 4.262 44.879 4.262 15.816 0 30.734-1.465 43.87-4.057zM157.093 87.99c35.275 3.929 60.707 15.05 60.707 28.158 0 16.387-39.757 29.672-88.8 29.672s-88.8-13.285-88.8-29.672c0-13.107 25.432-24.23 60.707-28.157 8.64 1.413 18.132 2.193 28.093 2.193 9.612 0 18.788-.727 27.183-2.047z"/>
    <ellipse cx="66.6" cy="22.254" rx="66.6" ry="22.254" transform="translate(62.4 39.742)"/>
</svg>
