<svg width="404" height="404" viewBox="0 0 404 404" fill="none" xmlns="http://www.w3.org/2000/svg">
<circle cx="202" cy="202" r="202" fill="black"/>
<path d="M113.25 138.75L78.5 104.75L107.25 75L142 109.75C159.667 97.75 179.417 91.75 201.25 91.75C223.25 91.75 243 97.75 260.5 109.75L295.25 75L324.25 104.75L289.5 138.75C301.333 157.083 307.25 176.667 307.25 197.5C307.25 218.5 301.333 238.167 289.5 256.5L324.25 290.5L295.25 320.25L260.5 285.25C243 297.417 223.25 303.5 201.25 303.5C179.417 303.5 159.667 297.417 142 285.25L107.25 320.25L78.5 290.5L113.25 256.5C101.417 238.167 95.5 218.5 95.5 197.5C95.5 176.667 101.417 157.083 113.25 138.75ZM136.25 197.5C136.25 215.5 142.583 230.833 155.25 243.5C167.917 256.167 183.167 262.5 201 262.5C218.833 262.5 234.083 256.167 246.75 243.5C259.417 230.833 265.75 215.5 265.75 197.5C265.75 179.667 259.417 164.417 246.75 151.75C234.25 139.083 219 132.75 201 132.75C183.167 132.75 167.917 139.083 155.25 151.75C142.583 164.417 136.25 179.667 136.25 197.5Z" fill="white"/>
</svg>
