<svg width="64" height="64" viewBox="0 0 64 64" fill="none" xmlns="http://www.w3.org/2000/svg">
<circle cx="32" cy="32" r="32" fill="black"/>
<path d="M23.0827 23.6208L16.3079 17.154M40.3274 23.7747L46.7942 17M47.1022 47.6402L40.3274 41.1735M16 47.7942L22.4668 41.0195M43.3875 32.2553C43.3875 33.8113 43.081 35.352 42.4856 36.7896C41.8901 38.2271 41.0174 39.5333 39.9171 40.6335C38.8169 41.7338 37.5107 42.6065 36.0732 43.202C34.6356 43.7974 33.0949 44.1039 31.5389 44.1039C29.9829 44.1039 28.4422 43.7974 27.0046 43.202C25.5671 42.6065 24.2609 41.7338 23.1607 40.6335C22.0604 39.5333 21.1877 38.2271 20.5922 36.7896C19.9968 35.352 19.6903 33.8113 19.6903 32.2553C19.6903 30.6993 19.9968 29.1586 20.5922 27.721C21.1877 26.2835 22.0604 24.9773 23.1607 23.8771C24.2609 22.7768 25.5671 21.9041 27.0046 21.3086C28.4422 20.7132 29.9829 20.4067 31.5389 20.4067C33.0949 20.4067 34.6356 20.7132 36.0732 21.3086C37.5107 21.9041 38.8169 22.7768 39.9171 23.8771C41.0174 24.9773 41.8901 26.2835 42.4856 27.721C43.081 29.1586 43.3875 30.6993 43.3875 32.2553Z" stroke="white" stroke-width="6.2"/>
</svg>
