<svg width="64" height="64" viewBox="0 0 64 64" fill="none" xmlns="http://www.w3.org/2000/svg">
<circle cx="32" cy="32" r="32" fill="black"/>
<path d="M19.6809 16.6745L17.8135 18.5443L20.1762 20.91L22.544 23.2757L22.348 23.8542C22.0952 24.6135 21.992 25.2489 21.992 26.0908C21.992 28.8336 23.4262 31.1683 25.9643 32.5577C26.9857 33.1156 28.7397 33.7458 30.6845 34.2468C34.4813 35.223 35.0643 35.3935 35.8123 35.7447C36.8337 36.2303 37.3393 36.7571 37.5508 37.5526C37.6436 37.8987 37.6385 38.6734 37.5456 39.0453C37.3083 39.9493 36.5397 40.8584 35.5853 41.3542C34.2956 42.0309 32.0516 42.2168 30.3595 41.783C29.7301 41.628 28.8377 41.1889 28.3889 40.8222C27.4758 40.0681 26.7639 38.7664 26.4492 37.2633C26.3976 37.0257 26.3563 36.8243 26.3512 36.8139C26.3357 36.7933 21.0532 37.3098 21.0274 37.3408C21.0067 37.3563 21.0222 37.5732 21.0583 37.8212C21.2234 39.0144 21.6413 40.4348 22.121 41.4214L22.3996 41.9947L20.104 44.2933L17.8135 46.5918L19.6861 48.4668L21.5536 50.3367L23.9214 47.9658L26.2841 45.6001L26.6917 45.7706C28.848 46.6796 32.0825 46.9637 35.219 46.5092C35.9722 46.4007 37.0607 46.1425 37.6333 45.9307L37.9738 45.8067L40.2385 48.0743L42.498 50.3367L44.3655 48.4668L46.2381 46.5918L44.1385 44.4896L42.044 42.3925L42.3071 41.8553C42.854 40.7551 43.0809 39.8201 43.1274 38.534C43.2099 36.0805 42.5754 34.2313 41.1309 32.7075C39.6246 31.1218 37.9274 30.3677 33.1349 29.159C29.7559 28.3119 28.3012 27.7282 27.7234 26.9947C27.1508 26.2716 27.0992 25.2592 27.5996 24.5206C27.8885 24.0918 28.6004 23.6321 29.3742 23.3739C30.246 23.0794 31.7111 22.9451 32.7996 23.0588C35.0952 23.3015 36.2508 24.283 36.7563 26.4317C36.8182 26.6951 36.875 26.9172 36.8801 26.9276C36.8905 26.9431 40.6254 26.8088 41.7448 26.752L42.3845 26.721L42.3484 26.2716C42.2762 25.3573 42.0956 24.5412 41.7655 23.6889L41.5849 23.2086L43.9115 20.8739L46.2381 18.5443L44.3706 16.6693L42.498 14.7995L40.1456 17.1549L37.7881 19.5154L37.2155 19.2984C35.8071 18.7716 34.4452 18.5391 32.4385 18.4823C30.246 18.4255 28.3218 18.7096 26.8464 19.3088L26.2996 19.5309L23.9266 17.1652L21.5536 14.7995L19.6809 16.6745Z" fill="white"/>
</svg>
