<svg width="497" height="499" viewBox="0 0 497 499" fill="none" xmlns="http://www.w3.org/2000/svg">
<g clip-path="url(#clip0)">
<path d="M496 333C496 241.873 422.127 168 331 168C239.873 168 166 241.873 166 333C166 424.127 239.873 498 331 498C422.127 498 496 424.127 496 333Z" fill="black"/>
<path d="M250.51 279.31C250.51 272.82 250.11 266.54 249.51 260.05H278.51L279.51 273.23C282.76 268.77 290.66 257.82 311.14 257.82C334.66 257.82 341.35 272.21 343.37 277.08C351.88 260.66 365.66 258 376.21 258C396.88 258 405.21 270.37 407.42 274.42C412.9 283.34 412.49 295.71 412.49 304.63V360.71H382.29V302.22C382.29 291.22 380.66 279.11 365.06 279.11C347.01 279.11 346.61 295.93 346.61 311.11V360.7H316.4V301.61C316.4 293.7 316.2 279.11 299.57 279.11C280.72 279.11 280.72 295.32 280.72 302.22V360.73H250.51V279.31V279.31ZM249.5 383.24H412.5V408.18H249.5V383.24Z" fill="#F4F4F4"/>
<path d="M166 308C245.529 308 310 243.529 310 164C310 84.471 245.529 20 166 20C86.471 20 22 84.471 22 164C22 243.529 86.471 308 166 308Z" fill="white"/>
<path d="M165 330C197.634 330 229.535 320.323 256.669 302.192C283.803 284.062 304.952 258.293 317.44 228.143C329.929 197.993 333.196 164.817 326.83 132.81C320.463 100.803 304.748 71.403 281.673 48.3274C258.597 25.2517 229.197 9.53699 197.19 3.17043C165.183 -3.19613 132.007 0.0714159 101.857 12.5599C71.7074 25.0483 45.9379 46.1968 27.8075 73.3309C9.67708 100.465 0 132.366 0 165C0 208.761 17.3839 250.729 48.3274 281.673C79.2709 312.616 121.239 330 165 330V330ZM165 302.71C137.764 302.707 111.141 294.628 88.4964 279.496C65.8517 264.364 48.2021 242.857 37.7793 217.694C27.3564 192.532 24.6283 164.844 29.9399 138.132C35.2514 111.419 48.3641 86.881 67.62 67.62C93.5131 42.1129 128.44 27.8758 164.786 28.0123C201.132 28.1487 235.951 42.6477 261.651 68.3486C287.352 94.0494 301.851 128.868 301.988 165.214C302.124 201.56 287.887 236.487 262.38 262.38C249.621 275.207 234.445 285.376 217.729 292.299C201.014 299.221 183.092 302.76 165 302.71V302.71ZM165 46.37C141.537 46.37 118.601 53.3275 99.0927 66.3628C79.5841 79.398 64.379 97.9255 55.4002 119.602C46.4213 141.279 44.0721 165.132 48.6494 188.144C53.2268 211.156 64.5252 232.293 81.1159 248.884C97.7066 265.475 118.844 276.773 141.856 281.351C164.868 285.928 188.721 283.579 210.398 274.6C232.075 265.621 250.602 250.416 263.637 230.907C276.672 211.399 283.63 188.463 283.63 165C283.593 133.549 271.083 103.396 248.843 81.1568C226.604 58.9174 196.451 46.407 165 46.37V46.37ZM101.26 204.23H228.74V223.73H101.26V204.23ZM151.09 194.81V183.62H141.09V104.94H151.09V94.27H158.55V104.94H167.82V94.27H175.28V105C179.92 105.19 185.75 105.93 190.21 108.69C198.66 114.07 199.32 123.26 199.32 125.95C199.32 131.06 197.67 135.28 194.55 138.17C192.802 139.923 190.774 141.373 188.55 142.46C198.7 145.67 202.41 154.1 202.41 161.4C202.439 165.365 201.341 169.256 199.243 172.62C197.145 175.984 194.133 178.682 190.56 180.4C187.2 182.15 182.07 183.18 175.3 183.49V194.78H167.84V183.62H158.57V194.81H151.09ZM159 119V136.1H169.29C175.36 136.1 181.29 135.43 181.29 127.4C181.29 119.64 175.72 119 168.98 119H159ZM159 150.23V169.12H169C178 169.12 183.85 168.49 183.85 159.99C183.85 150.94 176.68 150.23 167.31 150.23H159Z" fill="#020202"/>
</g>
<defs>
<clipPath id="clip0">
<rect width="497" height="499" fill="white"/>
</clipPath>
</defs>
</svg>
