<svg xmlns="http://www.w3.org/2000/svg" viewBox="0 0 332 332"><defs><style>.cls-1{fill:#020202;}</style></defs><g id="Layer_3" data-name="Layer 3"><path class="cls-1" d="M166,331A165,165,0,1,0,1,166,165,165,0,0,0,166,331Zm0-27.29A137.72,137.72,0,0,1,68.62,68.62,137.72,137.72,0,0,1,263.38,263.38,136.82,136.82,0,0,1,166,303.71Zm0-256.34A118.63,118.63,0,1,0,284.63,166,118.77,118.77,0,0,0,166,47.37ZM102.26,205.23H229.74v19.5H102.26Zm49.83-9.42V184.62h-10V105.94h10V95.27h7.46v10.67h9.27V95.27h7.46V106c4.64.19,10.47.93,14.93,3.69,8.45,5.38,9.11,14.57,9.11,17.26,0,5.11-1.65,9.33-4.77,12.22a22.28,22.28,0,0,1-6,4.29c10.15,3.21,13.86,11.64,13.86,18.94a20.91,20.91,0,0,1-11.85,19c-3.36,1.75-8.49,2.78-15.26,3.09v11.29h-7.46V184.62h-9.27v11.19ZM160,120v17.1h10.29c6.07,0,12-.67,12-8.7,0-7.76-5.57-8.4-12.31-8.4Zm0,31.23v18.89h10c9,0,14.85-.63,14.85-9.13,0-9.05-7.17-9.76-16.54-9.76Z"/></g></svg>