<svg width="497" height="499" fill="none" xmlns="http://www.w3.org/2000/svg"><path d="M496 333c0-91.127-73.873-165-165-165s-165 73.873-165 165 73.873 165 165 165 165-73.873 165-165z" fill="#000"/><path d="M250.51 279.31c0-6.49-.4-12.77-1-19.26h29l1 13.18c3.25-4.46 11.15-15.41 31.63-15.41 23.52 0 30.21 14.39 32.23 19.26 8.51-16.42 22.29-19.08 32.84-19.08 20.67 0 29 12.37 31.21 16.42 5.48 8.92 5.07 21.29 5.07 30.21v56.08h-30.2v-58.49c0-11-1.63-23.11-17.23-23.11-18.05 0-18.45 16.82-18.45 32v49.59H316.4v-59.09c0-7.91-.2-22.5-16.83-22.5-18.85 0-18.85 16.21-18.85 23.11v58.51h-30.21v-81.42zm-1.01 103.93h163v24.94h-163v-24.94z" fill="#F4F4F4"/><circle cx="166" cy="164" r="144" fill="#fff"/><g clip-path="url(#clip0)"><path d="M165 330a164.995 164.995 0 00152.44-101.857A165.002 165.002 0 00197.19 3.17 165.001 165.001 0 0048.327 281.673 165.001 165.001 0 00165 330zm0-27.29A137.722 137.722 0 0129.94 138.132 137.72 137.72 0 0167.62 67.62a137.721 137.721 0 01194.76 194.76 136.8 136.8 0 01-44.651 29.918A136.809 136.809 0 01165 302.71zm0-256.34A118.63 118.63 0 10283.63 165 118.768 118.768 0 00165 46.37zM100.38 204h127.47v19.5H100.38V204zm52.83-49.3c.11 3.32.57 9.14 8.34 11.08v-17.46l-7.2-1.94c-7.76-2.06-20.44-5.48-20.44-21 0-10.74 7.54-22.39 27.64-23V92.13h6.73v10.28c22.73 1 26.95 11.19 27.07 23.41h-20.79c.12-8-4.56-9.48-6.28-9.7v16.33c11.88 2.62 17.82 4 23.19 8.45a19.541 19.541 0 016.62 15.1c0 4.8-1.6 14.62-13.25 20.33-4.22 2-9.48 3.08-16.56 3.54V190h-6.73v-10.16c-11.54-.46-28.78-4.23-28.9-25.13l20.56-.01zm8.34-38.7c-6.06 1.6-6.51 5.6-6.51 7.31 0 3.43 2.62 6.4 6.51 7.31V116zm6.73 50c5.83-.91 8.45-4.45 8.45-8.34 0-5.59-5.13-7-6.62-7.31l-1.83-.57V166z" fill="#020202"/></g><defs><clipPath id="clip0"><path fill="#fff" d="M0 0h330v330H0z"/></clipPath></defs></svg>