<svg xmlns="http://www.w3.org/2000/svg" viewBox="0 0 330 330"><defs><style>.cls-1{fill:white;}</style></defs><g id="Layer_3" data-name="Layer 3"><path class="cls-1" d="M165,330A165,165,0,1,0,0,165,165,165,0,0,0,165,330Zm0-27.29A137.72,137.72,0,0,1,67.62,67.62,137.72,137.72,0,0,1,262.38,262.38,136.82,136.82,0,0,1,165,302.71Zm0-256.34A118.63,118.63,0,1,0,283.63,165,118.77,118.77,0,0,0,165,46.37ZM100.38,204H227.85v19.5H100.38Zm52.83-49.3c.11,3.32.57,9.14,8.34,11.08V148.32l-7.2-1.94c-7.76-2.06-20.44-5.48-20.44-21,0-10.74,7.54-22.39,27.64-23V92.13h6.73v10.28c22.73,1,26.95,11.19,27.07,23.41H174.56c.12-8-4.56-9.48-6.28-9.7v16.33c11.88,2.62,17.82,4,23.19,8.45A19.54,19.54,0,0,1,198.09,156c0,4.8-1.6,14.62-13.25,20.33-4.22,2-9.48,3.08-16.56,3.54V190h-6.73V179.84c-11.54-.46-28.78-4.23-28.9-25.13ZM161.55,116c-6.06,1.6-6.51,5.6-6.51,7.31,0,3.43,2.62,6.4,6.51,7.31Zm6.73,50c5.83-.91,8.45-4.45,8.45-8.34,0-5.59-5.13-7-6.62-7.31l-1.83-.57Z"/></g></svg>