<svg width="330" height="330" fill="none" xmlns="http://www.w3.org/2000/svg"><g clip-path="url(#clip0)"><circle cx="165" cy="165" r="137" fill="#fff"/><path d="M165 330a164.995 164.995 0 00152.44-101.857A165.002 165.002 0 00197.19 3.17 165.001 165.001 0 10165 330zm0-27.29A137.722 137.722 0 0129.94 138.132 137.72 137.72 0 0167.62 67.62a137.72 137.72 0 01194.76 194.76A136.819 136.819 0 01165 302.71zm0-256.34A118.628 118.628 0 0048.65 188.144 118.63 118.63 0 00283.63 165 118.767 118.767 0 00165 46.37zM100.38 204h127.47v19.5H100.38V204zm52.83-49.3c.11 3.32.57 9.14 8.34 11.08v-17.46l-7.2-1.94c-7.76-2.06-20.44-5.48-20.44-21 0-10.74 7.54-22.39 27.64-23V92.13h6.73v10.28c22.73 1 26.95 11.19 27.07 23.41h-20.79c.12-8-4.56-9.48-6.28-9.7v16.33c11.88 2.62 17.82 4 23.19 8.45a19.541 19.541 0 016.62 15.1c0 4.8-1.6 14.62-13.25 20.33-4.22 2-9.48 3.08-16.56 3.54V190h-6.73v-10.16c-11.54-.46-28.78-4.23-28.9-25.13l20.56-.01zm8.34-38.7c-6.06 1.6-6.51 5.6-6.51 7.31 0 3.43 2.62 6.4 6.51 7.31V116zm6.73 50c5.83-.91 8.45-4.45 8.45-8.34 0-5.59-5.13-7-6.62-7.31l-1.83-.57V166z" fill="#020202"/></g><defs><clipPath id="clip0"><path fill="#fff" d="M0 0h330v330H0z"/></clipPath></defs></svg>