<svg xmlns="http://www.w3.org/2000/svg" viewBox="0 0 330 330" width="330" height="330">
    <defs>
        <style>
            .cls-1{fill:#f4f4f4}
        </style>
    </defs>
    <g>
        <rect x="0" y="0" width="330" height="330" rx="165"/>
        <path class="cls-1" d="M69 221h188v29H69zM143 207h11v-16h13v16h11v-16c10-1 18-2 23-5a31 31 0 0017-28c0-10-5-23-20-28a34 34 0 009-6c4-4 7-10 7-18 0-4-1-17-14-25-6-4-15-5-22-6V60h-11v15h-13V60h-11v15h-15v116h15zm11-111h15c10 0 18 1 18 12 0 12-9 13-18 13h-15zm0 46h12c14 0 25 1 25 14s-9 14-22 14h-15z"/>
    </g>
</svg>
