<svg xmlns="http://www.w3.org/2000/svg" viewBox="0 0 332 332"><g data-name="Layer 3"><rect x="1" y="1" width="330" height="330" rx="165"/><path d="M69.23 223.81h187.53v28.69H69.23zM147 151.29c.17 4.87.84 13.44 12.27 16.3v-25.71L148.63 139c-11.42-3-30.07-8.07-30.07-30.91 0-15.8 11.09-32.93 40.66-33.77V59.23h9.91v15.12c33.43 1.51 39.65 16.46 39.81 34.44h-30.57c.17-11.76-6.72-14-9.24-14.28v24c17.47 3.86 26.21 5.88 34.1 12.43 6.39 5.38 9.75 13.61 9.75 22.18 0 7.05-2.36 21.5-19.49 29.9-6.22 3-14 4.54-24.36 5.21v14.97h-9.91v-14.95c-17-.67-42.34-6.22-42.51-37zm12.27-56.95c-8.91 2.35-9.58 8.23-9.58 10.75 0 5 3.86 9.41 9.58 10.75zm9.91 73.58c8.57-1.34 12.43-6.55 12.43-12.26 0-8.23-7.56-10.25-9.74-10.75l-2.69-.84z" fill="#f4f4f4"/></g></svg>