<svg width="200" height="200" fill="none" xmlns="http://www.w3.org/2000/svg"><path d="M134.163 93.541H65.836c-.7 0-1.245.545-1.245 1.245v11.518c0 .7.545 1.245 1.245 1.245h25.915v35.097c0 .7.545 1.245 1.245 1.245h14.163a1.23 1.23 0 001.246-1.245v-35.097h25.914c.7 0 1.245-.545 1.245-1.245V94.786c-.156-.7-.7-1.245-1.401-1.245zM100 77.198c5.837 0 10.506-4.747 10.506-10.506 0-5.836-4.747-10.505-10.506-10.505-5.837 0-10.506 4.747-10.506 10.505 0 5.837 4.67 10.506 10.506 10.506z" fill="#080503"/><path d="M100 0C44.747 0 0 44.747 0 100s44.747 100 100 100 100-44.747 100-100S155.253 0 100 0zm61.323 161.323c-16.42 16.42-38.21 25.447-61.323 25.447s-44.98-9.027-61.323-25.447C22.257 144.981 13.23 123.191 13.23 100c0-23.19 9.027-44.98 25.447-61.323C55.02 22.257 76.809 13.23 100 13.23c23.191 0 44.981 9.027 61.323 25.447 16.42 16.42 25.447 38.21 25.447 61.323 0 23.191-9.027 44.981-25.447 61.323z" fill="#080503"/></svg>