<svg width="330" height="330" fill="none" xmlns="http://www.w3.org/2000/svg"><g clip-path="url(#clip0)"><circle cx="165" cy="165" r="140" fill="#fff"/><path d="M165 330a165.002 165.002 0 00161.83-197.19A165.007 165.007 0 00197.19 3.17 165 165 0 10165 330zm-64.63-206.67c0-5.07-.32-10-.79-15.06h22.67l.79 10.31c2.54-3.49 8.72-12 24.74-12 18.39 0 23.62 11.26 25.21 15.06 6.66-12.84 17.44-14.9 25.68-14.9 16.17 0 22.67 9.67 24.42 12.84 4.28 7 4 16.65 4 23.62V187h-23.66v-45.75c0-8.56-1.27-18.07-13.48-18.07-14.11 0-14.43 13.16-14.43 25V187H151.9v-46.22c0-6.19-.16-17.6-13.16-17.6-14.74 0-14.74 12.68-14.74 18.07V187h-23.63v-63.67zm-.79 81.29h127.47v19.5H99.58v-19.5zM165 302.71a137.714 137.714 0 01-127.22-85.016A137.717 137.717 0 0167.62 67.62a137.721 137.721 0 01194.76 194.76A136.819 136.819 0 01165 302.71zm0-256.34A118.629 118.629 0 10283.63 165 118.767 118.767 0 00165 46.37z" fill="#020202"/></g><defs><clipPath id="clip0"><path fill="#fff" d="M0 0h330v330H0z"/></clipPath></defs></svg>