<svg xmlns="http://www.w3.org/2000/svg" viewBox="0 0 330 330"><path d="M165 330A165 165 0 100 165a165 165 0 00165 165zm-64.63-206.67c0-5.07-.32-10-.79-15.06h22.67l.79 10.31c2.54-3.49 8.72-12 24.74-12 18.39 0 23.62 11.26 25.21 15.06 6.66-12.84 17.44-14.9 25.68-14.9 16.17 0 22.67 9.67 24.42 12.84 4.28 7 4 16.65 4 23.62V187h-23.66v-45.75c0-8.56-1.27-18.07-13.48-18.07-14.11 0-14.43 13.16-14.43 25V187H151.9v-46.22c0-6.19-.16-17.6-13.16-17.6-14.74 0-14.74 12.68-14.74 18.07V187h-23.63zm-.79 81.29h127.47v19.5H99.58zM165 302.71A137.72 137.72 0 0167.62 67.62a137.72 137.72 0 01194.76 194.76A136.82 136.82 0 01165 302.71zm0-256.34A118.63 118.63 0 10283.63 165 118.77 118.77 0 00165 46.37z" fill="#020202" data-name="Layer 3"/></svg>