<svg version="1.1" viewBox="0 0 176 138">
<path d="m20.344 102.26-20.344-35.243 26.157-0.2654 0.0674-33.211 0.0674-33.211 0.59613-0.15976c0.32787-0.08787 7.3141-0.16139 15.525-0.16339l14.929-0.0036v66.611l24.579 0.138-20.38 35.297c-11.209 19.413-20.486 35.333-20.616 35.376-0.12999 0.0433-9.3913-15.781-20.581-35.164z"/>
<path d="m114.29 35.246-20.344 35.243 26.157 0.2654 0.1348 66.422 0.59613 0.15976c0.32787 0.0879 7.3141 0.1614 15.525 0.16339l14.929 4e-3v-66.611l24.579-0.138-20.38-35.297c-11.209-19.413-20.486-35.333-20.616-35.376-0.12999-0.0433-9.3913 15.781-20.581 35.164z"/>
</svg>
