<?xml version="1.0" encoding="UTF-8" standalone="no"?>
<svg 
    role="img" 
    xmlns="http://www.w3.org/2000/svg" 
    width="1000mm"
    height="1000mm"
    viewBox="0 0 1000 1000">
    
    <path 
        id="path" 
        style="opacity:1;vector-effect:none;fill:#000000;fill-opacity:1;"
        d="M 500 0C 224 0 0 224 0 500C 0 776 224 1000 500 1000C 776 1000 1000 776 1000 500C 1000 224 776 0 500 0C 500 0 500 0 500 0M 500 50C 749 50 950 251 950 500C 950 749 749 950 500 950C 251 950 50 749 50 500C 50 251 251 50 500 50C 500 50 500 50 500 50 M 443 509C 443 509 213 739 213 739C 213 739 249 774 249 774C 249 774 479 544 479 544C 479 544 443 509 443 509M 832 332C 832 332 691 473 691 473C 691 473 708 491 708 491C 708 491 850 350 850 350C 850 350 832 332 832 332M 655 226C 655 226 585 297 585 297C 585 297 691 403 691 403C 691 403 762 332 762 332C 762 332 655 226 655 226M 638 138C 638 138 496 279 496 279C 496 279 514 297 514 297C 514 297 655 155 655 155C 655 155 638 138 638 138M 638 88C 651 88 663 93 673 102C 673 102 691 120 691 120C 710 139 710 171 691 191C 691 191 691 191 691 191C 691 191 797 297 797 297C 797 297 797 297 797 297C 816 277 848 277 868 297C 868 297 885 314 885 314C 905 334 905 366 885 385C 885 385 744 527 744 527C 725 546 692 546 673 527C 673 527 655 509 655 509C 636 490 636 457 655 438C 655 438 620 403 620 403C 620 403 514 509 514 509C 514 509 514 509 514 509C 533 528 533 560 514 580C 514 580 284 809 284 809C 265 829 233 829 213 809C 213 809 178 774 178 774C 159 755 159 723 178 703C 178 703 408 473 408 473C 427 454 459 454 479 473C 479 473 479 473 479 473C 479 473 585 367 585 367C 585 367 549 332 549 332C 530 351 498 351 479 332C 479 332 461 314 461 314C 442 295 442 263 461 244C 461 244 602 102 602 102C 612 93 625 88 638 88C 638 88 638 88 638 88"
        transform="translate(1000,0) scale(-1,1)">
    </path>    
</svg>