<svg xmlns="http://www.w3.org/2000/svg" width="1000mm" height="1000mm" viewBox="0 0 1000 1000">
    <path d="M500 0a500 500 0 110 1000A500 500 0 01500 0m0 50a449 449 0 10-1 899 449 449 0 001-899m57 459l230 230-36 35-230-230 36-35M168 332l141 141-17 18-142-141 18-18m177-106l70 71-106 106-71-71 107-106m17-88l142 141-18 18-141-142 17-17m0-50c-13 0-25 5-35 14l-18 18a51 51 0 000 71L203 297a50 50 0 00-71 0l-17 17a50 50 0 000 71l141 142c19 19 52 19 71 0l18-18c19-19 19-52 0-71l35-35 106 106a51 51 0 000 71l230 229c19 20 51 20 71 0l35-35c19-19 19-51 0-71L592 473a51 51 0 00-71 0L415 367l36-35c19 19 51 19 70 0l18-18c19-19 19-51 0-70L398 102c-10-9-23-14-36-14" fill="#25272d"/>
</svg>
