<svg width="128" height="128" viewBox="0 0 128 128" fill="none" xmlns="http://www.w3.org/2000/svg">
<circle cx="64" cy="64" r="62" stroke="#25272D" stroke-width="4"/>
<path d="M64.5451 17.283C72.9744 17.283 79.7411 19.4484 84.8451 23.779C89.9491 28.1097 92.5011 34.2964 92.5011 42.339C92.5011 49.3764 90.1424 54.9444 85.4251 59.043C80.7851 63.1417 74.6371 65.2684 66.9811 65.423L66.4011 73.891H46.3331L45.6371 50.807H53.9891C59.2477 50.807 63.2691 50.227 66.0531 49.067C68.8371 47.8297 70.2291 45.6644 70.2291 42.571C70.2291 40.483 69.6491 38.859 68.4891 37.699C67.4064 36.4617 65.8984 35.843 63.9651 35.843C61.7998 35.843 60.1371 36.5004 58.9771 37.815C57.8944 39.0524 57.3531 40.7537 57.3531 42.919H35.8931C35.7384 38.2017 36.7051 33.9097 38.7931 30.043C40.9584 26.099 44.2064 23.0057 48.5371 20.763C52.8677 18.443 58.2038 17.283 64.5451 17.283ZM56.5411 106.023C52.5197 106.023 49.2717 104.94 46.7971 102.775C44.3997 100.532 43.2011 97.7097 43.2011 94.307C43.2011 90.9044 44.3997 88.0817 46.7971 85.839C49.2717 83.5964 52.5197 82.475 56.5411 82.475C60.4851 82.475 63.6558 83.5964 66.0531 85.839C68.5278 88.0817 69.7651 90.9044 69.7651 94.307C69.7651 97.6324 68.5278 100.416 66.0531 102.659C63.6558 104.902 60.4851 106.023 56.5411 106.023Z" fill="#25272D"/>
</svg>
