<svg id="Layer_1" data-name="Layer 1" xmlns="http://www.w3.org/2000/svg" viewBox="0 0 700 700"><defs><style>.cls-1{fill:#020202;}</style></defs><polygon class="cls-1" points="192.7 140.41 232.25 149.57 259.25 33.84 259.63 33.6 259.32 33.53 259.4 33.23 259.02 33.46 142.86 6.75 133.69 46.3 183.64 56.97 23.08 157.09 45.03 192.29 204.61 92.77 192.7 140.41"/><path class="cls-1" d="M476.09,140A186.84,186.84,0,0,0,306.87,247.56a212,212,0,0,0-50.1-6c-116.65,0-211.22,94.57-211.22,211.23S140.12,664,256.77,664c95.77,0,176.64-63.74,202.53-151.1,5.53.49,11.13.76,16.79.76,103.19,0,186.84-83.65,186.84-186.84S579.28,140,476.09,140ZM353.27,546.31A134.75,134.75,0,0,1,164,545.59,131.25,131.25,0,0,1,164,360c1.24-1.23,2.51-2.44,3.79-3.62a131.82,131.82,0,0,1,56.71-32.09h0l3.24-.84.15,0q1.56-.37,3.15-.72l.2-.05,3.12-.63.24,0c1-.2,2.07-.38,3.11-.55l.26,0c1-.17,2.08-.32,3.12-.47l.25,0c1.06-.14,2.11-.27,3.17-.39l.22,0c1.07-.12,2.15-.22,3.23-.32h.17c1.1-.09,2.21-.17,3.32-.24h.09c1.14-.07,2.28-.12,3.43-.16h0c1.47-.05,3-.08,4.43-.08a132.76,132.76,0,0,1,93.87,226.64Z"/></svg>