<svg width="128" height="128" viewBox="0 0 128 128" fill="none" xmlns="http://www.w3.org/2000/svg">
    <circle cx="64" cy="64" r="62" stroke="#25272D" stroke-width="4"/>
    <path d="M32.7813 42.1747C32.7813 39.6574 32.6261 37.2215 32.3934 34.7042H43.6419L44.0298 39.8164C45.2904 38.0865 48.3546 33.8392 56.2984 33.8392C65.4213 33.8392 68.0162 39.4208 68.7997 41.3098C72.1005 34.9408 77.4455 33.9091 81.5376 33.9091C89.5551 33.9091 92.7861 38.7071 93.6433 40.278C95.7689 43.7379 95.6099 48.536 95.6099 51.9958V73.7481H83.8959V51.0611C83.8959 46.7944 83.2637 42.0972 77.2128 42.0972C70.2116 42.0972 70.0564 48.6213 70.0564 54.5093V73.7442H58.3386V50.8244C58.3386 47.7563 58.261 42.0972 51.8106 42.0972C44.4991 42.0972 44.4991 48.3847 44.4991 51.0611V73.7558H32.7813V42.1747Z" fill="#25272D"/>
    <path d="M32.3879 82.487H95.6121V92.1607H32.3879V82.487Z" fill="#25272D"/>
</svg>
