<svg id="Layer_1" data-name="Layer 1" xmlns="http://www.w3.org/2000/svg" viewBox="0 0 700 700"><defs><style>.cls-1{fill:#020202;}</style></defs><polygon class="cls-1" points="191.7 139.41 231.25 148.57 258.25 32.84 258.63 32.6 258.32 32.53 258.4 32.23 258.02 32.46 141.86 5.75 132.69 45.3 182.64 55.97 22.08 156.09 44.03 191.29 203.61 91.77 191.7 139.41"/><path class="cls-1" d="M473.39,130.23A195.64,195.64,0,0,0,294.26,247.15a210.83,210.83,0,0,0-39.6-3.75c-115.88,0-209.81,93.94-209.81,209.81S138.78,663,254.66,663c92.36,0,170.78-59.68,198.8-142.57a198.77,198.77,0,0,0,19.93,1c108,0,195.61-87.58,195.61-195.61S581.42,130.23,473.39,130.23Zm81.75,277.36a114.85,114.85,0,0,1-81.75,33.86c-3.12,0-6.21-.13-9.28-.37A209.64,209.64,0,0,0,368.54,277a115.64,115.64,0,1,1,186.6,130.61Z"/></svg>