<svg id="Layer_1" data-name="Layer 1" xmlns="http://www.w3.org/2000/svg" viewBox="0 0 700 700"><defs><style>.cls-1{fill:#020202;}</style></defs><polygon class="cls-1" points="449.33 213.01 529.39 132.01 529.82 132 529.6 131.79 529.81 131.58 529.39 131.59 447.89 51.54 420.58 79.26 456.03 113.01 425.27 113.23 425.2 109.33 245 112.25 278.3 79.01 250.34 51.95 171 133.67 170.58 133.67 170.8 133.88 170.59 134.09 171.01 134.09 253.22 213.4 280.28 185.45 244.53 152.01 274.97 151.52 274.99 154.08 455.21 152.76 421.62 185.71 449.33 213.01"/><path class="cls-1" d="M443.25,241.08A209,209,0,0,0,347.86,264a208.94,208.94,0,0,0-97.25-23.86c-115.87,0-209.81,93.94-209.81,209.81s93.94,209.81,209.81,209.81A209,209,0,0,0,346,636.84a208.93,208.93,0,0,0,97.24,23.86c115.88,0,209.81-93.93,209.81-209.81S559.13,241.08,443.25,241.08ZM277.8,579.91a134.13,134.13,0,0,1-27.19,2.77,132.76,132.76,0,0,1,0-265.52,134.13,134.13,0,0,1,28.5,3,209.8,209.8,0,0,0-1.31,259.7ZM535,542.68a128.94,128.94,0,0,1-91.79,38A131.47,131.47,0,0,1,416.78,578c.62-.8,1.23-1.62,1.84-2.43a132.82,132.82,0,0,1-14.14-259.29h0l3.24-.84.15,0q1.56-.37,3.15-.72l.2-.05,3.12-.63.24,0c1-.2,2.07-.38,3.11-.55l.26,0c1-.17,2.08-.32,3.12-.47l.25,0c1.06-.14,2.11-.27,3.17-.39l.22,0c1.07-.12,2.15-.22,3.23-.32h.17c1.1-.09,2.21-.17,3.32-.24h.09c1.14-.07,2.28-.12,3.43-.16h0c1.47-.05,2.95-.08,4.43-.08a132.79,132.79,0,0,1,132,118.09,131.06,131.06,0,0,1,1.71,21.13A129,129,0,0,1,535,542.68Z"/></svg>