<svg width="128" height="128" viewBox="0 0 128 128" fill="none" xmlns="http://www.w3.org/2000/svg">
<g clip-path="url(#clip0)">
<circle cx="64" cy="64" r="62" stroke="black" stroke-width="4"/>
<path d="M96.4943 81.104C96.4943 85.512 95.2956 89.572 92.8983 93.284C90.5783 96.9187 87.137 99.8573 82.5743 102.1C78.089 104.343 72.6756 105.58 66.3343 105.812V115.092H59.0263V105.58C50.5196 104.807 43.5596 102.216 38.1463 97.808C32.8103 93.4 29.9876 87.4067 29.6783 79.828H53.9223C54.2316 83.772 55.933 86.3627 59.0263 87.6V72.752C52.5303 70.9733 47.4263 69.3493 43.7143 67.88C40.0023 66.3333 36.677 63.8587 33.7383 60.456C30.877 57.0533 29.4463 52.4133 29.4463 46.536C29.4463 41.664 30.7223 37.4493 33.2743 33.892C35.9036 30.2573 39.461 27.4733 43.9463 25.54C48.4316 23.5293 53.4583 22.3693 59.0263 22.06V12.664H66.3343V22.06C74.9183 22.6787 81.7236 25.1533 86.7503 29.484C91.8543 33.8147 94.677 39.7693 95.2183 47.348H70.7423C70.433 43.7907 68.9636 41.432 66.3343 40.272V55.004L69.2343 55.932C74.8023 57.4787 79.4036 59.1027 83.0383 60.804C86.7503 62.428 89.921 64.9027 92.5503 68.228C95.1796 71.476 96.4943 75.768 96.4943 81.104ZM53.6903 45.492C53.6903 48.276 55.469 50.5573 59.0263 52.336V39.576C55.469 40.1947 53.6903 42.1667 53.6903 45.492ZM66.3343 88.18C68.1903 87.7933 69.6596 87.0587 70.7423 85.976C71.825 84.816 72.3663 83.3853 72.3663 81.684C72.3663 78.9773 70.3556 76.7733 66.3343 75.072V88.18Z" fill="black"/>
</g>
<defs>
<clipPath id="clip0">
<rect width="128" height="128" fill="white"/>
</clipPath>
</defs>
</svg>
