<svg width="128" height="128" viewBox="0 0 128 128" fill="none" xmlns="http://www.w3.org/2000/svg">
<circle cx="64" cy="64" r="62" stroke="#25272D" stroke-width="4"/>
<path d="M76.2967 19.139L73.6287 74.471H54.2567L51.5887 19.139H76.2967ZM64.0007 106.023C59.9793 106.023 56.7313 104.94 54.2567 102.775C51.8593 100.532 50.6607 97.7097 50.6607 94.307C50.6607 90.9044 51.8593 88.0817 54.2567 85.839C56.7313 83.5964 59.9793 82.475 64.0007 82.475C67.9447 82.475 71.1153 83.5964 73.5127 85.839C75.9873 88.0817 77.2247 90.9044 77.2247 94.307C77.2247 97.6324 75.9873 100.416 73.5127 102.659C71.1153 104.902 67.9447 106.023 64.0007 106.023Z" fill="#25272D"/>
</svg>
