<svg width="13" height="18" viewBox="0 0 13 18" fill="none" xmlns="http://www.w3.org/2000/svg">
<path d="M9.81133 8.30124C10.6988 7.84599 11.2541 7.04422 11.1244 5.70853C10.9497 3.88316 9.38448 3.27107 7.40862 3.09675L7.40824 0.564819H5.87732L5.87689 3.03017C5.4741 3.03017 5.06349 3.03814 4.65474 3.0464L4.65441 0.565155L3.12488 0.565011L3.12459 3.09632C2.7931 3.10314 2.46757 3.10962 2.14971 3.10962V3.10213L0.0380859 3.10127L0.0383718 4.74704C0.0383718 4.74704 1.16892 4.72563 1.1503 4.74642C1.77016 4.74685 1.97256 5.1093 2.03077 5.42216L2.03124 8.30657V12.3582C2.00395 12.5546 1.8891 12.8683 1.45568 12.8689C1.4754 12.8863 0.34204 12.8687 0.34204 12.8687L0.0383718 14.709H2.03029C2.40146 14.7094 2.76614 14.7153 3.12392 14.7181L3.12526 17.2787L4.65441 17.2792L4.65398 14.7454C5.07468 14.754 5.48077 14.7578 5.87742 14.7573L5.87699 17.2792H7.40785L7.40871 14.7228C9.98201 14.574 11.7835 13.9213 12.0075 11.4879C12.188 9.52878 11.2723 8.65428 9.81133 8.30124ZM4.69133 4.85813C5.55474 4.85813 8.27018 4.58127 8.27056 6.39743C8.27018 8.13859 5.5556 7.93519 4.69133 7.93519V4.85813V4.85813ZM4.69066 12.8813L4.69133 9.48859C5.7287 9.48831 8.98245 9.18802 8.98288 11.1842C8.98331 13.0985 5.7287 12.8806 4.69066 12.8813Z" fill="white"/>
</svg>
