<svg width="119" height="70" viewBox="0 0 119 70" fill="none" xmlns="http://www.w3.org/2000/svg">
<path d="M13.9991 3.01915C12.3791 1.47915 10.2691 0.729153 8.16913 0.759153C6.05913 0.789153 3.96913 1.59915 2.37913 3.19915L2.25912 3.31915C0.759123 4.88915 0.0291235 6.91915 0.0491233 8.92915C0.0791232 10.9392 0.869126 12.9491 2.41913 14.4791C19.7091 31.7591 36.7091 49.6292 53.7891 67.1492C53.8391 67.2192 53.8991 67.2892 53.9591 67.3592C55.5891 68.9092 57.7191 69.6692 59.8291 69.6392C61.9391 69.6092 64.0391 68.7892 65.6291 67.1892C82.5791 49.6892 99.4691 32.1192 116.399 14.5892L116.529 14.4692C118.069 12.9392 118.849 10.9392 118.879 8.92916C118.909 6.91916 118.179 4.89916 116.669 3.31916L116.519 3.16916C114.939 1.59916 112.859 0.789162 110.759 0.759162C108.659 0.729162 106.539 1.48916 104.909 3.03916L59.6691 50.2192L13.9991 3.01915Z" fill="black"/>
</svg>
