<svg width="121" height="27" fill="none" xmlns="http://www.w3.org/2000/svg"><g clip-path="url(#clip0)" fill-rule="evenodd" clip-rule="evenodd"><path d="M118.781 15.356c0-1.579-.93-2.767-2.398-2.767s-2.399 1.188-2.399 2.767c0 1.58.931 2.768 2.399 2.768 1.471.003 2.398-1.186 2.398-2.768zm-.072-3.827V7.393c0-.273.183-.51.447-.58l2.194-.585v13.997h-2.434v-1.189c-.612.892-1.711 1.414-3.086 1.414-2.824 0-4.478-2.266-4.478-5.09 0-2.825 1.654-5.091 4.478-5.091 1.372-.003 2.378.59 2.879 1.26zm-14.975-1.041v1.188c.447-.837 1.45-1.413 2.899-1.413 2.342 0 3.587 1.56 3.587 3.884v6.078h-2.638v-5.778c0-1.135-.483-1.915-1.654-1.915-1.282 0-1.987.816-1.987 2.119v5.574h-2.638v-9.737h2.431zm-8.6 9.962c-2.842 0-4.424-1.227-4.424-4.385v-5.577h2.638V16.1c0 1.357.613 1.987 1.783 1.987s1.783-.634 1.783-1.987v-5.613h2.639v5.574c.006 3.16-1.576 4.388-4.419 4.388zM82 15.356c0 1.747 1.078 2.768 2.47 2.768 1.393 0 2.47-1.024 2.47-2.768 0-1.744-1.077-2.767-2.47-2.767-1.39 0-2.47 1.02-2.47 2.767zm2.473 5.094c-3.121 0-5.111-2.323-5.111-5.09 0-2.768 1.987-5.091 5.111-5.091 3.122 0 5.112 2.323 5.112 5.09-.003 2.768-1.99 5.091-5.112 5.091zM71.32 15.356c0 1.58.93 2.768 2.399 2.768 1.467 0 2.398-1.189 2.398-2.768 0-1.579-.93-2.767-2.398-2.767s-2.399 1.188-2.399 2.767zm.075 3.83v4.05c0 .273-.183.51-.447.579l-2.191.576V10.488h2.434v1.188c.612-.891 1.711-1.413 3.086-1.413 2.824 0 4.478 2.266 4.478 5.09 0 2.825-1.654 5.091-4.478 5.091-1.378.006-2.38-.588-2.882-1.258zM60.92 14.687v5.538H58.28v-5.778c0-1.078-.39-1.915-1.56-1.915-1.228 0-1.898.798-1.898 2.101v5.595h-2.638v-9.74h2.434v1.188c.447-.837 1.414-1.413 2.807-1.413 1.32 0 2.266.519 2.824 1.374.856-.948 1.84-1.374 3.233-1.374 2.341 0 3.53 1.617 3.53 3.884v6.078h-2.638v-5.778c0-1.078-.39-1.915-1.561-1.915-1.246 0-1.894.798-1.894 2.155zm-17.539.67c0 1.746 1.078 2.767 2.47 2.767 1.393 0 2.47-1.024 2.47-2.768 0-1.744-1.077-2.767-2.47-2.767-1.392 0-2.47 1.02-2.47 2.767zm2.47 5.093c-3.121 0-5.111-2.323-5.111-5.09 0-2.768 1.987-5.091 5.111-5.091 3.125 0 5.112 2.323 5.112 5.09 0 2.768-1.99 5.091-5.112 5.091zm-18.802-6.84c0-4.125 2.843-6.86 6.634-6.86 3.29 0 5.892 1.952 6.393 5.166h-2.9c-.39-1.653-1.728-2.584-3.493-2.584-2.417 0-3.773 1.672-3.773 4.274 0 2.603 1.357 4.275 3.773 4.275 1.765 0 3.103-.93 3.494-2.585h2.9c-.502 3.215-3.104 5.166-6.394 5.166-3.791.006-6.634-2.725-6.634-6.853z" fill="#000"/><path d="M1.084 21.043A2.265 2.265 0 010 19.113V14.72a.942.942 0 011.42-.813l9.911 5.778c.58.34.937.958.937 1.63v4.55a1.132 1.132 0 01-1.723.966l-9.461-5.79zm14.774-8.339c.579.34.936.958.936 1.63v9.233a.752.752 0 01-.384.657l-2.17 1.222a.443.443 0 01-.087.036v-5.127a1.89 1.89 0 00-.919-1.62L4.53 13.527V7.74a.942.942 0 011.42-.813l9.909 5.777zm4.337-6.82c.582.337.94.961.94 1.633v13.487a.757.757 0 01-.397.663l-2.056 1.11V13.39a1.89 1.89 0 00-.915-1.618L8.87 6.434V.944c0-.168.045-.33.126-.474a.945.945 0 011.29-.343l9.909 5.758z" fill="#00D395"/></g><defs><clipPath id="clip0"><path fill="#fff" d="M0 0h121v27H0z"/></clipPath></defs></svg>
