<svg width="18" height="17" viewBox="0 0 18 17" fill="none" xmlns="http://www.w3.org/2000/svg">
<path d="M15.4591 5.74838V2.02912H15.3454C15.1282 0.898211 11.7881 0 7.69937 0C3.67592 0 0.377855 0.869495 0.0658913 1.97464H0V6.23153C7.65091e-05 6.33345 0.00718842 6.43525 0.0212835 6.53616H0V11.4444C0 11.9257 0.160938 12.6416 0.92831 13.3189C1.36797 13.707 1.96479 14.0434 2.70184 14.3187C4.0045 14.8051 5.69523 15.0822 7.48566 15.1053C8.05533 15.7053 8.73841 16.1824 9.49399 16.508C10.2496 16.8335 11.0621 17.0009 11.8829 17C15.2611 17 18 14.2189 18 10.7886C18.0008 9.80401 17.7708 8.83336 17.329 7.95692C16.8871 7.08048 16.2462 6.32343 15.4591 5.74838ZM3.91849 12.143C2.93683 11.8378 2.52311 11.5009 2.4199 11.3683V8.99455C2.51145 9.03284 2.60543 9.06994 2.70184 9.10586C3.59691 9.4401 4.67537 9.67546 5.84334 9.79773C5.79146 10.1251 5.76524 10.4561 5.76491 10.7877C5.76444 11.3871 5.84949 11.9834 6.0174 12.5581C5.24973 12.4737 4.53338 12.3331 3.91849 12.1421V12.143ZM6.75036 7.40743C5.70631 7.34378 4.72522 7.17977 3.91849 6.92931C2.93741 6.62498 2.52311 6.28807 2.4199 6.15485V3.70061C3.79371 4.06741 5.65266 4.2927 7.69937 4.2927C9.77612 4.2927 11.6596 4.0609 13.0392 3.68462V4.68763C11.8434 4.45464 10.6064 4.58896 9.48619 5.07343C8.36598 5.5579 7.41347 6.37051 6.75036 7.40743ZM14.6197 13.567C14.2003 13.9925 13.6902 14.3144 13.1288 14.5079C12.5675 14.7015 11.9698 14.7615 11.382 14.6834C10.7941 14.6053 10.2318 14.3911 9.73841 14.0574C9.245 13.7236 8.83368 13.2793 8.53619 12.7586C8.23869 12.2379 8.06297 11.6547 8.02257 11.0541C7.98217 10.4535 8.07817 9.85156 8.30318 9.29461C8.52819 8.73766 8.87618 8.24064 9.32032 7.84188C9.76445 7.44313 10.2929 7.15329 10.8648 6.99474C10.8963 6.98615 10.9278 6.97787 10.9592 6.97017H10.9636C10.9939 6.96287 11.0246 6.95576 11.0555 6.94885H11.0613C11.0916 6.94234 11.1219 6.93612 11.1523 6.9302L11.1593 6.92872C11.1884 6.9231 11.2196 6.91777 11.2499 6.91273L11.2575 6.91125C11.2867 6.90652 11.3181 6.90178 11.3485 6.89764H11.3558C11.3867 6.89349 11.4173 6.88964 11.4482 6.88639H11.4546C11.4858 6.88283 11.5173 6.87987 11.5488 6.87721H11.5537C11.5858 6.87454 11.6182 6.87218 11.6505 6.8704H11.6543C11.6875 6.86862 11.7208 6.86685 11.7543 6.86596C11.7972 6.86596 11.8403 6.86359 11.8835 6.86359C12.649 6.8636 13.3974 7.09412 14.0339 7.52601C14.6705 7.9579 15.1666 8.57176 15.4595 9.28996C15.7525 10.0082 15.8291 10.7984 15.6797 11.5608C15.5303 12.3233 15.1617 13.0236 14.6203 13.5732L14.6197 13.567Z" fill="rgba(121, 121, 121, 1)"/>
</svg>
