<svg xmlns="http://www.w3.org/2000/svg" viewBox="0 0 1090 182"><g id="m"><path fill="#25272D" d="M1.2 25.36C1.2 17.71.72 10.29 0 2.63h34.27l1.19 15.56C39.27 12.92 48.57 0 72.74 0c27.76 0 35.65 17 38 22.73C120.74 3.35 137.06.24 149.51.24c24.4 0 34.21 14.6 36.84 19.38 6.46 10.53 6 25.12 6 35.65v66.18h-35.63v-69c0-12.92-1.91-27.28-20.33-27.28-21.3 0-21.78 19.86-21.78 37.81v58.47H78.96V51.68c0-9.33-.24-26.56-19.86-26.56-22.25 0-22.25 19.15-22.25 27.33v69H1.2zM0 148.03h192.38v29.42H0z"/></g><g id="stable"><path fill="#25272D" d="M678.12 4.71h64.6c10 0 29.43 0 42.59 8.14 15.79 10.05 19.38 26.79 19.38 36.84 0 6.46-1.19 17.71-10 25.85-1.19 1.43-9.57 9.09-19.62 11.72v.48c26.32 4.78 36.61 23.93 36.61 42.11 0 20.34-12 34-25.36 40.68-13.45 6.92-36.9 6.92-43.6 6.92h-64.6zm35.41 70.35h25.84c10.53 0 29.67 0 29.67-22.26 0-21.53-18.18-21.53-30.39-21.53h-25.12zm0 74.65h25.12c17 0 36.13 0 36.13-23.21 0-24.64-22.25-24.64-40-24.64h-21.25zM837.95 4.71h37.81v143.32h74.17v29.42h-112zM972.19 4.45H1088v28.26h-78.73v41.15h73.69v28.23h-73.69v46.66h81.35v28.7H972.19zM552.74 4.45l-62.47 173h35.43l12.92-37.33h68.43l12.44 37.33h37.33l-60.06-173zm21.05 34l23.97 73.67-49.57.02zM420.41 33.18h-51.44V4.45h140.21v28.73h-51.44v144.27h-37.33zM256.98 122.19c0 8.14-.48 32.78 31.35 32.78 20.1 0 32.78-9.57 32.78-24.16 0-15.32-10.77-18-32.78-23.21-41.16-10.29-63.65-22.49-63.65-52.4 0-28.48 20.34-53.6 68.43-53.6 18 0 39.24 4.07 52.17 20.34 9.81 12.44 9.81 26.32 9.81 32.06h-35.66c-.47-6-2.39-26.32-28-26.32-17.23 0-28.47 9.33-28.47 23.45 0 16 12.68 18.9 37.56 25.12 29.92 7.2 59.35 15.32 59.35 49.05 0 31.11-25.84 56.23-73.7 56.23-66.27 0-66.75-42.59-67-59.34z"/></g></svg>