<svg xmlns="http://www.w3.org/2000/svg" viewBox="0 0 1108 192"><g data-name="Layer 3"><path d="M266.71 128.74c0 8.14-.48 32.78 31.35 32.78 20.1 0 32.78-9.57 32.78-24.16 0-15.32-10.77-18-32.78-23.21-41.16-10.29-63.65-22.49-63.65-52.4 0-28.48 20.34-53.6 68.43-53.6 18 0 39.24 4.07 52.17 20.34 9.81 12.44 9.81 26.32 9.81 32.06h-35.66c-.47-6-2.39-26.32-28-26.32-17.23 0-28.47 9.33-28.47 23.45 0 16 12.68 18.9 37.56 25.12 29.92 7.2 59.35 15.32 59.35 49.05 0 31.11-25.84 56.23-73.7 56.23-66.27 0-66.75-42.59-67-59.34zM430.14 39.73H378.7V11h140.21v28.73h-51.44V184h-37.33zM606.49 11l60.06 173h-37.33l-12.44-37.33h-68.43L535.43 184H500l62.47-173zm1 107.67L583.52 45l-25.6 73.69zM687.85 11.26h64.6c10 0 29.43 0 42.59 8.14 15.79 10.05 19.38 26.79 19.38 36.84 0 6.46-1.19 17.71-10 25.85-1.19 1.43-9.57 9.09-19.62 11.72v.48c26.32 4.78 36.61 23.93 36.61 42.11 0 20.34-12 34-25.36 40.68-13.45 6.92-36.9 6.92-43.6 6.92h-64.6zm35.41 70.35h25.84c10.53 0 29.67 0 29.67-22.26 0-21.53-18.18-21.53-30.39-21.53h-25.12zm0 74.65h25.12c17 0 36.13 0 36.13-23.21 0-24.64-22.25-24.64-40-24.64h-21.25zM847.68 11.26h37.81v143.32h74.17V184h-112zM10.93 31.91c0-7.65-.48-15.07-1.2-22.73H44l1.19 15.56C49 19.47 58.3 6.55 82.47 6.55c27.76 0 35.65 17 38 22.73 10-19.38 26.32-22.49 38.77-22.49 24.4 0 34.21 14.6 36.84 19.38 6.46 10.53 6 25.12 6 35.65V128h-35.63V59c0-12.92-1.91-27.28-20.33-27.28-21.3 0-21.78 19.86-21.78 37.81V128H88.69V58.23c0-9.33-.24-26.56-19.86-26.56-22.25 0-22.25 19.15-22.25 27.33v69H10.93zM9.73 154.58h192.38V184H9.73zM981.92 11h115.81v28.26H1019v41.15h73.69v28.23H1019v46.66h81.35V184H981.92z"/></g></svg>