<svg width="11" height="18" viewBox="0 0 11 18" fill="none" xmlns="http://www.w3.org/2000/svg">
<path d="M10.0321 11.7543C10.0321 12.4094 9.86204 13.0266 9.52193 13.6061C9.19441 14.1729 8.70313 14.6453 8.0481 15.0232C7.40566 15.3885 6.64355 15.6027 5.76178 15.6657V17.1962H4.55248V15.6468C3.2928 15.5334 2.27875 15.1555 1.51035 14.5131C0.74194 13.858 0.34514 12.9762 0.319946 11.8677H3.15423C3.22981 12.7747 3.6959 13.3227 4.55248 13.5116V9.90261C3.64551 9.67587 2.91489 9.44913 2.36063 9.22238C1.80637 8.99564 1.32769 8.63033 0.924594 8.12646C0.521496 7.62259 0.319946 6.93606 0.319946 6.06688C0.319946 4.97096 0.710448 4.07658 1.49145 3.38376C2.28505 2.69093 3.30539 2.29413 4.55248 2.19336V0.662842H5.76178V2.19336C6.97107 2.29413 7.93473 2.65944 8.65275 3.28928C9.38336 3.91912 9.79276 4.7883 9.88094 5.89682H7.02776C6.98997 5.53151 6.8577 5.21659 6.63096 4.95206C6.41681 4.67493 6.12708 4.47968 5.76178 4.36631V7.93751C6.70654 8.17685 7.44975 8.40989 7.99141 8.63663C8.54567 8.85078 9.02435 9.20979 9.42745 9.71366C9.83055 10.2049 10.0321 10.8852 10.0321 11.7543ZM3.07865 5.93461C3.07865 6.35031 3.20462 6.69042 3.45656 6.95496C3.70849 7.20689 4.0738 7.41474 4.55248 7.5785V4.30962C4.09899 4.37261 3.73998 4.54266 3.47545 4.81979C3.21092 5.09692 3.07865 5.46853 3.07865 5.93461ZM5.76178 13.5494C6.24045 13.4612 6.61206 13.266 6.87659 12.9636C7.15372 12.6613 7.29229 12.296 7.29229 11.8677C7.29229 11.452 7.16002 11.1182 6.89549 10.8663C6.63096 10.6143 6.25305 10.4065 5.76178 10.2427V13.5494Z" fill="white"/>
</svg>
